<svg xmlns="http://www.w3.org/2000/svg" version="1.1" xmlns:xlink="http://www.w3.org/1999/xlink" xmlns:svgjs="http://svgjs.com/svgjs" width="14000" height="1500" preserveAspectRatio="none" viewBox="0 0 14000 1500">
    <g mask="url(&quot;#SvgjsMask1152&quot;)" fill="none">
        <rect width="14000" height="1500" x="0" y="0" fill="url(#SvgjsLinearGradient1153)"></rect>
        <use xlink:href="#SvgjsSymbol1160" x="0" y="0"></use>
        <use xlink:href="#SvgjsSymbol1160" x="0" y="720"></use>
        <use xlink:href="#SvgjsSymbol1160" x="0" y="1440"></use>
        <use xlink:href="#SvgjsSymbol1160" x="720" y="0"></use>
        <use xlink:href="#SvgjsSymbol1160" x="720" y="720"></use>
        <use xlink:href="#SvgjsSymbol1160" x="720" y="1440"></use>
        <use xlink:href="#SvgjsSymbol1160" x="1440" y="0"></use>
        <use xlink:href="#SvgjsSymbol1160" x="1440" y="720"></use>
        <use xlink:href="#SvgjsSymbol1160" x="1440" y="1440"></use>
        <use xlink:href="#SvgjsSymbol1160" x="2160" y="0"></use>
        <use xlink:href="#SvgjsSymbol1160" x="2160" y="720"></use>
        <use xlink:href="#SvgjsSymbol1160" x="2160" y="1440"></use>
        <use xlink:href="#SvgjsSymbol1160" x="2880" y="0"></use>
        <use xlink:href="#SvgjsSymbol1160" x="2880" y="720"></use>
        <use xlink:href="#SvgjsSymbol1160" x="2880" y="1440"></use>
        <use xlink:href="#SvgjsSymbol1160" x="3600" y="0"></use>
        <use xlink:href="#SvgjsSymbol1160" x="3600" y="720"></use>
        <use xlink:href="#SvgjsSymbol1160" x="3600" y="1440"></use>
        <use xlink:href="#SvgjsSymbol1160" x="4320" y="0"></use>
        <use xlink:href="#SvgjsSymbol1160" x="4320" y="720"></use>
        <use xlink:href="#SvgjsSymbol1160" x="4320" y="1440"></use>
        <use xlink:href="#SvgjsSymbol1160" x="5040" y="0"></use>
        <use xlink:href="#SvgjsSymbol1160" x="5040" y="720"></use>
        <use xlink:href="#SvgjsSymbol1160" x="5040" y="1440"></use>
        <use xlink:href="#SvgjsSymbol1160" x="5760" y="0"></use>
        <use xlink:href="#SvgjsSymbol1160" x="5760" y="720"></use>
        <use xlink:href="#SvgjsSymbol1160" x="5760" y="1440"></use>
        <use xlink:href="#SvgjsSymbol1160" x="6480" y="0"></use>
        <use xlink:href="#SvgjsSymbol1160" x="6480" y="720"></use>
        <use xlink:href="#SvgjsSymbol1160" x="6480" y="1440"></use>
        <use xlink:href="#SvgjsSymbol1160" x="7200" y="0"></use>
        <use xlink:href="#SvgjsSymbol1160" x="7200" y="720"></use>
        <use xlink:href="#SvgjsSymbol1160" x="7200" y="1440"></use>
        <use xlink:href="#SvgjsSymbol1160" x="7920" y="0"></use>
        <use xlink:href="#SvgjsSymbol1160" x="7920" y="720"></use>
        <use xlink:href="#SvgjsSymbol1160" x="7920" y="1440"></use>
        <use xlink:href="#SvgjsSymbol1160" x="8640" y="0"></use>
        <use xlink:href="#SvgjsSymbol1160" x="8640" y="720"></use>
        <use xlink:href="#SvgjsSymbol1160" x="8640" y="1440"></use>
        <use xlink:href="#SvgjsSymbol1160" x="9360" y="0"></use>
        <use xlink:href="#SvgjsSymbol1160" x="9360" y="720"></use>
        <use xlink:href="#SvgjsSymbol1160" x="9360" y="1440"></use>
        <use xlink:href="#SvgjsSymbol1160" x="10080" y="0"></use>
        <use xlink:href="#SvgjsSymbol1160" x="10080" y="720"></use>
        <use xlink:href="#SvgjsSymbol1160" x="10080" y="1440"></use>
        <use xlink:href="#SvgjsSymbol1160" x="10800" y="0"></use>
        <use xlink:href="#SvgjsSymbol1160" x="10800" y="720"></use>
        <use xlink:href="#SvgjsSymbol1160" x="10800" y="1440"></use>
        <use xlink:href="#SvgjsSymbol1160" x="11520" y="0"></use>
        <use xlink:href="#SvgjsSymbol1160" x="11520" y="720"></use>
        <use xlink:href="#SvgjsSymbol1160" x="11520" y="1440"></use>
        <use xlink:href="#SvgjsSymbol1160" x="12240" y="0"></use>
        <use xlink:href="#SvgjsSymbol1160" x="12240" y="720"></use>
        <use xlink:href="#SvgjsSymbol1160" x="12240" y="1440"></use>
        <use xlink:href="#SvgjsSymbol1160" x="12960" y="0"></use>
        <use xlink:href="#SvgjsSymbol1160" x="12960" y="720"></use>
        <use xlink:href="#SvgjsSymbol1160" x="12960" y="1440"></use>
        <use xlink:href="#SvgjsSymbol1160" x="13680" y="0"></use>
        <use xlink:href="#SvgjsSymbol1160" x="13680" y="720"></use>
        <use xlink:href="#SvgjsSymbol1160" x="13680" y="1440"></use>
    </g>
    <defs>
        <mask id="SvgjsMask1152">
            <rect width="14000" height="1500" fill="#ffffff"></rect>
        </mask>
        <linearGradient x1="22.32%" y1="308.33%" x2="77.68%" y2="-208.33%" gradientUnits="userSpaceOnUse" id="SvgjsLinearGradient1153">
            <stop stop-color="rgba(6, 3, 0, 1)" offset="0"></stop>
            <stop stop-color="rgba(158, 0, 0, 1)" offset="1"></stop>
        </linearGradient>
        <path d="M-1 0 a1 1 0 1 0 2 0 a1 1 0 1 0 -2 0z" id="SvgjsPath1159"></path>
        <path d="M-3 0 a3 3 0 1 0 6 0 a3 3 0 1 0 -6 0z" id="SvgjsPath1156"></path>
        <path d="M-5 0 a5 5 0 1 0 10 0 a5 5 0 1 0 -10 0z" id="SvgjsPath1155"></path>
        <path d="M2 -2 L-2 2z" id="SvgjsPath1158"></path>
        <path d="M6 -6 L-6 6z" id="SvgjsPath1154"></path>
        <path d="M30 -30 L-30 30z" id="SvgjsPath1157"></path>
    </defs>
    <symbol id="SvgjsSymbol1160">
        <use xlink:href="#SvgjsPath1154" x="30" y="30" stroke="rgba(252, 186, 3, 1)"></use>
        <use xlink:href="#SvgjsPath1154" x="30" y="90" stroke="rgba(252, 186, 3, 1)"></use>
        <use xlink:href="#SvgjsPath1155" x="30" y="150" stroke="rgba(252, 186, 3, 1)"></use>
        <use xlink:href="#SvgjsPath1156" x="30" y="210" stroke="rgba(252, 186, 3, 1)"></use>
        <use xlink:href="#SvgjsPath1154" x="30" y="270" stroke="rgba(252, 186, 3, 1)"></use>
        <use xlink:href="#SvgjsPath1155" x="30" y="330" stroke="rgba(252, 186, 3, 1)"></use>
        <use xlink:href="#SvgjsPath1155" x="30" y="390" stroke="rgba(252, 186, 3, 1)"></use>
        <use xlink:href="#SvgjsPath1155" x="30" y="450" stroke="rgba(252, 186, 3, 1)"></use>
        <use xlink:href="#SvgjsPath1154" x="30" y="510" stroke="rgba(252, 186, 3, 1)"></use>
        <use xlink:href="#SvgjsPath1154" x="30" y="570" stroke="rgba(252, 186, 3, 1)"></use>
        <use xlink:href="#SvgjsPath1154" x="30" y="630" stroke="rgba(252, 186, 3, 1)"></use>
        <use xlink:href="#SvgjsPath1157" x="30" y="690" stroke="rgba(252, 186, 3, 1)" stroke-width="3"></use>
        <use xlink:href="#SvgjsPath1155" x="90" y="30" stroke="rgba(252, 186, 3, 1)"></use>
        <use xlink:href="#SvgjsPath1155" x="90" y="90" stroke="rgba(252, 186, 3, 1)"></use>
        <use xlink:href="#SvgjsPath1158" x="90" y="150" stroke="rgba(252, 186, 3, 1)"></use>
        <use xlink:href="#SvgjsPath1159" x="90" y="210" stroke="rgba(252, 186, 3, 1)"></use>
        <use xlink:href="#SvgjsPath1154" x="90" y="270" stroke="rgba(252, 186, 3, 1)"></use>
        <use xlink:href="#SvgjsPath1154" x="90" y="330" stroke="rgba(252, 186, 3, 1)"></use>
        <use xlink:href="#SvgjsPath1158" x="90" y="390" stroke="rgba(252, 186, 3, 1)"></use>
        <use xlink:href="#SvgjsPath1159" x="90" y="450" stroke="rgba(252, 186, 3, 1)"></use>
        <use xlink:href="#SvgjsPath1159" x="90" y="510" stroke="rgba(252, 186, 3, 1)"></use>
        <use xlink:href="#SvgjsPath1154" x="90" y="570" stroke="rgba(252, 186, 3, 1)"></use>
        <use xlink:href="#SvgjsPath1159" x="90" y="630" stroke="rgba(252, 186, 3, 1)"></use>
        <use xlink:href="#SvgjsPath1156" x="90" y="690" stroke="rgba(252, 186, 3, 1)"></use>
        <use xlink:href="#SvgjsPath1156" x="150" y="30" stroke="rgba(252, 186, 3, 1)"></use>
        <use xlink:href="#SvgjsPath1155" x="150" y="90" stroke="rgba(252, 186, 3, 1)"></use>
        <use xlink:href="#SvgjsPath1158" x="150" y="150" stroke="rgba(252, 186, 3, 1)"></use>
        <use xlink:href="#SvgjsPath1155" x="150" y="210" stroke="rgba(252, 186, 3, 1)"></use>
        <use xlink:href="#SvgjsPath1155" x="150" y="270" stroke="rgba(252, 186, 3, 1)"></use>
        <use xlink:href="#SvgjsPath1156" x="150" y="330" stroke="rgba(252, 186, 3, 1)"></use>
        <use xlink:href="#SvgjsPath1158" x="150" y="390" stroke="rgba(252, 186, 3, 1)"></use>
        <use xlink:href="#SvgjsPath1158" x="150" y="450" stroke="rgba(252, 186, 3, 1)"></use>
        <use xlink:href="#SvgjsPath1158" x="150" y="510" stroke="rgba(252, 186, 3, 1)"></use>
        <use xlink:href="#SvgjsPath1154" x="150" y="570" stroke="rgba(252, 186, 3, 1)"></use>
        <use xlink:href="#SvgjsPath1156" x="150" y="630" stroke="rgba(252, 186, 3, 1)"></use>
        <use xlink:href="#SvgjsPath1155" x="150" y="690" stroke="rgba(252, 186, 3, 1)"></use>
        <use xlink:href="#SvgjsPath1158" x="210" y="30" stroke="rgba(252, 186, 3, 1)"></use>
        <use xlink:href="#SvgjsPath1154" x="210" y="90" stroke="rgba(252, 186, 3, 1)"></use>
        <use xlink:href="#SvgjsPath1159" x="210" y="150" stroke="rgba(252, 186, 3, 1)"></use>
        <use xlink:href="#SvgjsPath1158" x="210" y="210" stroke="rgba(252, 186, 3, 1)"></use>
        <use xlink:href="#SvgjsPath1159" x="210" y="270" stroke="rgba(252, 186, 3, 1)"></use>
        <use xlink:href="#SvgjsPath1158" x="210" y="330" stroke="rgba(252, 186, 3, 1)"></use>
        <use xlink:href="#SvgjsPath1154" x="210" y="390" stroke="rgba(252, 186, 3, 1)"></use>
        <use xlink:href="#SvgjsPath1155" x="210" y="450" stroke="rgba(252, 186, 3, 1)"></use>
        <use xlink:href="#SvgjsPath1156" x="210" y="510" stroke="rgba(252, 186, 3, 1)"></use>
        <use xlink:href="#SvgjsPath1158" x="210" y="570" stroke="rgba(252, 186, 3, 1)"></use>
        <use xlink:href="#SvgjsPath1158" x="210" y="630" stroke="rgba(252, 186, 3, 1)"></use>
        <use xlink:href="#SvgjsPath1155" x="210" y="690" stroke="rgba(252, 186, 3, 1)"></use>
        <use xlink:href="#SvgjsPath1155" x="270" y="30" stroke="rgba(252, 186, 3, 1)"></use>
        <use xlink:href="#SvgjsPath1159" x="270" y="90" stroke="rgba(252, 186, 3, 1)"></use>
        <use xlink:href="#SvgjsPath1156" x="270" y="150" stroke="rgba(252, 186, 3, 1)"></use>
        <use xlink:href="#SvgjsPath1158" x="270" y="210" stroke="rgba(252, 186, 3, 1)"></use>
        <use xlink:href="#SvgjsPath1154" x="270" y="270" stroke="rgba(252, 186, 3, 1)"></use>
        <use xlink:href="#SvgjsPath1154" x="270" y="330" stroke="rgba(252, 186, 3, 1)"></use>
        <use xlink:href="#SvgjsPath1154" x="270" y="390" stroke="rgba(252, 186, 3, 1)"></use>
        <use xlink:href="#SvgjsPath1155" x="270" y="450" stroke="rgba(252, 186, 3, 1)"></use>
        <use xlink:href="#SvgjsPath1154" x="270" y="510" stroke="rgba(252, 186, 3, 1)"></use>
        <use xlink:href="#SvgjsPath1154" x="270" y="570" stroke="rgba(252, 186, 3, 1)"></use>
        <use xlink:href="#SvgjsPath1155" x="270" y="630" stroke="rgba(252, 186, 3, 1)"></use>
        <use xlink:href="#SvgjsPath1156" x="270" y="690" stroke="rgba(252, 186, 3, 1)"></use>
        <use xlink:href="#SvgjsPath1154" x="330" y="30" stroke="rgba(252, 186, 3, 1)"></use>
        <use xlink:href="#SvgjsPath1155" x="330" y="90" stroke="rgba(252, 186, 3, 1)"></use>
        <use xlink:href="#SvgjsPath1156" x="330" y="150" stroke="rgba(252, 186, 3, 1)"></use>
        <use xlink:href="#SvgjsPath1158" x="330" y="210" stroke="rgba(252, 186, 3, 1)"></use>
        <use xlink:href="#SvgjsPath1154" x="330" y="270" stroke="rgba(252, 186, 3, 1)"></use>
        <use xlink:href="#SvgjsPath1159" x="330" y="330" stroke="rgba(252, 186, 3, 1)"></use>
        <use xlink:href="#SvgjsPath1154" x="330" y="390" stroke="rgba(252, 186, 3, 1)"></use>
        <use xlink:href="#SvgjsPath1155" x="330" y="450" stroke="rgba(252, 186, 3, 1)"></use>
        <use xlink:href="#SvgjsPath1155" x="330" y="510" stroke="rgba(252, 186, 3, 1)"></use>
        <use xlink:href="#SvgjsPath1155" x="330" y="570" stroke="rgba(252, 186, 3, 1)"></use>
        <use xlink:href="#SvgjsPath1159" x="330" y="630" stroke="rgba(252, 186, 3, 1)"></use>
        <use xlink:href="#SvgjsPath1154" x="330" y="690" stroke="rgba(252, 186, 3, 1)"></use>
        <use xlink:href="#SvgjsPath1155" x="390" y="30" stroke="rgba(252, 186, 3, 1)"></use>
        <use xlink:href="#SvgjsPath1158" x="390" y="90" stroke="rgba(252, 186, 3, 1)"></use>
        <use xlink:href="#SvgjsPath1154" x="390" y="150" stroke="rgba(252, 186, 3, 1)"></use>
        <use xlink:href="#SvgjsPath1158" x="390" y="210" stroke="rgba(252, 186, 3, 1)"></use>
        <use xlink:href="#SvgjsPath1159" x="390" y="270" stroke="rgba(252, 186, 3, 1)"></use>
        <use xlink:href="#SvgjsPath1154" x="390" y="330" stroke="rgba(252, 186, 3, 1)"></use>
        <use xlink:href="#SvgjsPath1155" x="390" y="390" stroke="rgba(252, 186, 3, 1)"></use>
        <use xlink:href="#SvgjsPath1159" x="390" y="450" stroke="rgba(252, 186, 3, 1)"></use>
        <use xlink:href="#SvgjsPath1156" x="390" y="510" stroke="rgba(252, 186, 3, 1)"></use>
        <use xlink:href="#SvgjsPath1159" x="390" y="570" stroke="rgba(252, 186, 3, 1)"></use>
        <use xlink:href="#SvgjsPath1155" x="390" y="630" stroke="rgba(252, 186, 3, 1)"></use>
        <use xlink:href="#SvgjsPath1154" x="390" y="690" stroke="rgba(252, 186, 3, 1)"></use>
        <use xlink:href="#SvgjsPath1156" x="450" y="30" stroke="rgba(252, 186, 3, 1)"></use>
        <use xlink:href="#SvgjsPath1154" x="450" y="90" stroke="rgba(252, 186, 3, 1)"></use>
        <use xlink:href="#SvgjsPath1155" x="450" y="150" stroke="rgba(252, 186, 3, 1)"></use>
        <use xlink:href="#SvgjsPath1154" x="450" y="210" stroke="rgba(252, 186, 3, 1)"></use>
        <use xlink:href="#SvgjsPath1155" x="450" y="270" stroke="rgba(252, 186, 3, 1)"></use>
        <use xlink:href="#SvgjsPath1159" x="450" y="330" stroke="rgba(252, 186, 3, 1)"></use>
        <use xlink:href="#SvgjsPath1154" x="450" y="390" stroke="rgba(252, 186, 3, 1)"></use>
        <use xlink:href="#SvgjsPath1155" x="450" y="450" stroke="rgba(252, 186, 3, 1)"></use>
        <use xlink:href="#SvgjsPath1156" x="450" y="510" stroke="rgba(252, 186, 3, 1)"></use>
        <use xlink:href="#SvgjsPath1155" x="450" y="570" stroke="rgba(252, 186, 3, 1)"></use>
        <use xlink:href="#SvgjsPath1159" x="450" y="630" stroke="rgba(252, 186, 3, 1)"></use>
        <use xlink:href="#SvgjsPath1154" x="450" y="690" stroke="rgba(252, 186, 3, 1)"></use>
        <use xlink:href="#SvgjsPath1155" x="510" y="30" stroke="rgba(252, 186, 3, 1)"></use>
        <use xlink:href="#SvgjsPath1154" x="510" y="90" stroke="rgba(252, 186, 3, 1)"></use>
        <use xlink:href="#SvgjsPath1154" x="510" y="150" stroke="rgba(252, 186, 3, 1)"></use>
        <use xlink:href="#SvgjsPath1154" x="510" y="210" stroke="rgba(252, 186, 3, 1)"></use>
        <use xlink:href="#SvgjsPath1154" x="510" y="270" stroke="rgba(252, 186, 3, 1)"></use>
        <use xlink:href="#SvgjsPath1158" x="510" y="330" stroke="rgba(252, 186, 3, 1)"></use>
        <use xlink:href="#SvgjsPath1158" x="510" y="390" stroke="rgba(252, 186, 3, 1)"></use>
        <use xlink:href="#SvgjsPath1155" x="510" y="450" stroke="rgba(252, 186, 3, 1)"></use>
        <use xlink:href="#SvgjsPath1159" x="510" y="510" stroke="rgba(252, 186, 3, 1)"></use>
        <use xlink:href="#SvgjsPath1155" x="510" y="570" stroke="rgba(252, 186, 3, 1)"></use>
        <use xlink:href="#SvgjsPath1155" x="510" y="630" stroke="rgba(252, 186, 3, 1)"></use>
        <use xlink:href="#SvgjsPath1154" x="510" y="690" stroke="rgba(252, 186, 3, 1)"></use>
        <use xlink:href="#SvgjsPath1155" x="570" y="30" stroke="rgba(252, 186, 3, 1)"></use>
        <use xlink:href="#SvgjsPath1154" x="570" y="90" stroke="rgba(252, 186, 3, 1)"></use>
        <use xlink:href="#SvgjsPath1154" x="570" y="150" stroke="rgba(252, 186, 3, 1)"></use>
        <use xlink:href="#SvgjsPath1154" x="570" y="210" stroke="rgba(252, 186, 3, 1)"></use>
        <use xlink:href="#SvgjsPath1155" x="570" y="270" stroke="rgba(252, 186, 3, 1)"></use>
        <use xlink:href="#SvgjsPath1158" x="570" y="330" stroke="rgba(252, 186, 3, 1)"></use>
        <use xlink:href="#SvgjsPath1156" x="570" y="390" stroke="rgba(252, 186, 3, 1)"></use>
        <use xlink:href="#SvgjsPath1154" x="570" y="450" stroke="rgba(252, 186, 3, 1)"></use>
        <use xlink:href="#SvgjsPath1156" x="570" y="510" stroke="rgba(252, 186, 3, 1)"></use>
        <use xlink:href="#SvgjsPath1158" x="570" y="570" stroke="rgba(252, 186, 3, 1)"></use>
        <use xlink:href="#SvgjsPath1158" x="570" y="630" stroke="rgba(252, 186, 3, 1)"></use>
        <use xlink:href="#SvgjsPath1159" x="570" y="690" stroke="rgba(252, 186, 3, 1)"></use>
        <use xlink:href="#SvgjsPath1158" x="630" y="30" stroke="rgba(252, 186, 3, 1)"></use>
        <use xlink:href="#SvgjsPath1159" x="630" y="90" stroke="rgba(252, 186, 3, 1)"></use>
        <use xlink:href="#SvgjsPath1154" x="630" y="150" stroke="rgba(252, 186, 3, 1)"></use>
        <use xlink:href="#SvgjsPath1157" x="630" y="210" stroke="rgba(252, 186, 3, 1)" stroke-width="3"></use>
        <use xlink:href="#SvgjsPath1159" x="630" y="270" stroke="rgba(252, 186, 3, 1)"></use>
        <use xlink:href="#SvgjsPath1158" x="630" y="330" stroke="rgba(252, 186, 3, 1)"></use>
        <use xlink:href="#SvgjsPath1159" x="630" y="390" stroke="rgba(252, 186, 3, 1)"></use>
        <use xlink:href="#SvgjsPath1154" x="630" y="450" stroke="rgba(252, 186, 3, 1)"></use>
        <use xlink:href="#SvgjsPath1156" x="630" y="510" stroke="rgba(252, 186, 3, 1)"></use>
        <use xlink:href="#SvgjsPath1156" x="630" y="570" stroke="rgba(252, 186, 3, 1)"></use>
        <use xlink:href="#SvgjsPath1155" x="630" y="630" stroke="rgba(252, 186, 3, 1)"></use>
        <use xlink:href="#SvgjsPath1157" x="630" y="690" stroke="rgba(252, 186, 3, 1)" stroke-width="3"></use>
        <use xlink:href="#SvgjsPath1159" x="690" y="30" stroke="rgba(252, 186, 3, 1)"></use>
        <use xlink:href="#SvgjsPath1155" x="690" y="90" stroke="rgba(252, 186, 3, 1)"></use>
        <use xlink:href="#SvgjsPath1156" x="690" y="150" stroke="rgba(252, 186, 3, 1)"></use>
        <use xlink:href="#SvgjsPath1156" x="690" y="210" stroke="rgba(252, 186, 3, 1)"></use>
        <use xlink:href="#SvgjsPath1155" x="690" y="270" stroke="rgba(252, 186, 3, 1)"></use>
        <use xlink:href="#SvgjsPath1155" x="690" y="330" stroke="rgba(252, 186, 3, 1)"></use>
        <use xlink:href="#SvgjsPath1157" x="690" y="390" stroke="rgba(252, 186, 3, 1)" stroke-width="3"></use>
        <use xlink:href="#SvgjsPath1154" x="690" y="450" stroke="rgba(252, 186, 3, 1)"></use>
        <use xlink:href="#SvgjsPath1155" x="690" y="510" stroke="rgba(252, 186, 3, 1)"></use>
        <use xlink:href="#SvgjsPath1156" x="690" y="570" stroke="rgba(252, 186, 3, 1)"></use>
        <use xlink:href="#SvgjsPath1158" x="690" y="630" stroke="rgba(252, 186, 3, 1)"></use>
        <use xlink:href="#SvgjsPath1156" x="690" y="690" stroke="rgba(252, 186, 3, 1)"></use>
    </symbol>
</svg>